- 
http://www.Speed.Cd      fast  and The Hottest Private Tracker on the net

   signup is open now

Please Seed back to make the speed Faster!!!

------------------nfo--------------------------
- Repo.2010.BRRip.XViD.AC3-5.1.SeT-CM8.avi




Two best friends..... One dumb plan.


[url=http://www.imdb.com/title/tt0887161/url]

Source   Repo 2010 720p BluRay DTS x264-DNL  Thank you  :)
(Also thank you to our silent friends for making this possible

Format                           : AVI
Format/Info                      : Audio Video Interleave
File size                        : 1.44 GiB
Duration                         : 1h 36mn
Overall bit rate                 : 2 125 Kbps
Writing application              : Lavf51.12.1
Writing library                  : VirtualDub build 30091/release

Video
ID                               : 0
Format                           : xvid
Codec ID                         : xvid
Duration                         : 1h 36mn
Bit rate                         : 1 796 Kbps
Width                            : 720 pixels
Height                           : 404 pixels
Display aspect ratio             : 16:9
Frame rate                       : 23.976 fps
Bits/(Pixel*Frame)               : 0.257
Stream size                      : 1.22 GiB (85%)

Audio
ID                               : 1
Format                           : AC-3
Format/Info                      : Audio Coding 3
Mode extension                   : CM (complete main)
Codec ID                         : 2000
Duration                         : 1h 36mn
Bit rate mode                    : Constant
Bit rate                         : 320 Kbps
Channel(s)                       : 6 channels
Channel positions                : Front: L C R, Side: L R, LFE
Sampling rate                    : 48.0 KHz
Bit depth                        : 16 bits
Compression mode                 : Lossy
Stream size                      : 222 MiB (15%)
Alignment                        : Split accross interleaves
Interleave, duration             : 42 ms (1.00 video frame)
Interleave, preload duration     : 500 ms




big shout out to my Homies Mr Hive , Sir Unevano, Super TED and Mr Simmo.
Greets to SAiNTS,DTRG,SANTi,BDK, THC,SAFC, SiC, AMIABLE and mSD for Super amazing work with there H264
Quality compression
 all the other Ledgends out there Past and Present..